<?xml version="1.0" encoding="UTF-8"?>
<svg id="b" data-name="Layer 2" xmlns="http://www.w3.org/2000/svg" viewBox="0 0 112.17 194.5">
  <defs>
    <style>
      .d {
        fill: #040fbc;
      }

      .e {
        fill: #ff8d00;
      }

      .f {
        fill: #2550f9;
      }

      .g {
        fill: #0522de;
      }

      .h {
        fill: #ffd200;
      }

      .i {
        fill: #fff;
      }

      .j {
        fill: #191919;
      }
    </style>
  </defs>
  <g id="c" data-name="Layer 1">
    <g>
      <g>
        <rect class="g" x="26.08" y="67.5" width="60" height="7.5"/>
        <g>
          <rect class="e" x="33.58" y="60" width="45" height="7.5"/>
          <rect class="e" x="26.08" y="52.5" width="60" height="7.5"/>
          <rect class="e" x="26.08" y="45" width="60" height="7.5"/>
          <rect class="e" x="33.58" y="37.5" width="52.5" height="7.5"/>
          <rect class="e" x="41.08" y="30" width="45" height="7.5"/>
          <rect class="e" x="48.58" y="22.5" width="30" height="7.5"/>
          <rect class="e" x="41.08" y="15" width="30" height="7.5"/>
          <rect class="e" x="33.58" y="7.5" width="22.5" height="7.5"/>
          <rect class="e" x="33.58" width="7.5" height="7.5"/>
        </g>
        <rect class="g" x="33.58" y="75" width="45" height="7.5"/>
        <rect class="g" x="41.08" y="82.5" width="30" height="7.5"/>
        <rect class="g" x="41.08" y="120" width="30" height="7.5"/>
        <rect class="g" x="48.58" y="90" width="15" height="30"/>
        <g>
          <rect class="h" x="41.08" y="52.5" width="30" height="7.5"/>
          <rect class="h" x="48.58" y="45" width="30" height="7.5"/>
          <rect class="h" x="56.08" y="37.5" width="15" height="7.5"/>
          <rect class="h" x="56.08" y="30" width="7.5" height="7.5"/>
        </g>
        <rect class="f" x="26.08" y="67.5" width="22.5" height="7.5"/>
        <rect class="f" x="33.58" y="75" width="7.5" height="7.5"/>
        <rect class="i" x="48.58" y="52.5" width="15" height="7.5"/>
        <rect class="i" x="56.08" y="45" width="7.5" height="7.5"/>
        <rect class="f" x="41.08" y="82.5" width="7.5" height="7.5"/>
        <rect class="f" x="41.08" y="120" width="7.5" height="7.5"/>
        <rect class="f" x="48.58" y="90" width="7.5" height="30"/>
        <rect class="d" x="63.58" y="67.5" width="22.5" height="7.5"/>
        <rect class="d" x="71.08" y="75" width="7.5" height="7.5"/>
        <rect class="d" x="63.58" y="120" width="7.5" height="7.5"/>
        <rect class="d" x="63.58" y="82.5" width="7.5" height="7.5"/>
        <rect class="d" x="56.08" y="90" width="7.5" height="30"/>
      </g>
      <g>
        <g>
          <path class="g" d="M7.18,173.37c-1.46,0-2.72-.22-3.79-.66-1.07-.44-1.9-1.1-2.48-1.99-.59-.88-.89-1.98-.9-3.29h3.92c.04.56.19,1.02.46,1.4.27.38.64.67,1.11.86.47.2,1.02.3,1.64.3.57,0,1.06-.08,1.48-.24.41-.16.73-.38.96-.65.23-.28.34-.6.34-.96,0-.33-.1-.62-.31-.85-.2-.24-.52-.44-.93-.62-.42-.18-.95-.34-1.6-.49l-1.81-.41c-1.54-.34-2.73-.9-3.58-1.68-.85-.78-1.27-1.82-1.27-3.11,0-1.07.29-2.01.86-2.81.57-.8,1.37-1.42,2.38-1.87s2.17-.67,3.49-.67,2.51.23,3.49.68c.98.45,1.75,1.08,2.29,1.9.54.81.83,1.77.85,2.87h-3.91c-.05-.65-.31-1.15-.78-1.52-.47-.36-1.11-.54-1.94-.54-.53,0-.99.07-1.37.22-.38.15-.66.35-.86.61-.19.26-.29.55-.29.89s.1.63.31.87.5.44.89.61.85.31,1.4.42l1.49.34c.86.19,1.63.43,2.29.73.66.3,1.22.66,1.67,1.08s.79.9,1.02,1.45.35,1.17.35,1.86c0,1.1-.27,2.04-.82,2.84s-1.33,1.4-2.36,1.82c-1.03.42-2.26.63-3.69.63Z"/>
          <path class="g" d="M23.43,173.36c-1.46,0-2.73-.26-3.82-.79-1.09-.52-1.94-1.26-2.54-2.21-.61-.95-.91-2.06-.91-3.35v-11.14h4.08v10.8c0,.6.13,1.14.41,1.61.27.47.64.84,1.12,1.11s1.03.41,1.67.41,1.2-.14,1.68-.41c.48-.27.85-.64,1.12-1.11.27-.47.4-1.01.4-1.61v-10.8h4.08v11.14c0,1.28-.3,2.4-.91,3.35-.61.95-1.45,1.69-2.54,2.21-1.09.52-2.36.79-3.82.79Z"/>
          <path class="g" d="M41.07,173.37c-1.56,0-2.96-.35-4.19-1.04-1.23-.69-2.21-1.7-2.92-3.02s-1.07-2.92-1.07-4.81.36-3.51,1.08-4.83c.72-1.32,1.7-2.33,2.93-3.02s2.62-1.04,4.17-1.04c1.03,0,1.98.14,2.86.43.88.29,1.66.71,2.33,1.26.67.55,1.22,1.22,1.64,2,.42.79.7,1.68.82,2.69h-4.15c-.07-.43-.2-.82-.39-1.16-.19-.34-.44-.63-.73-.87-.29-.24-.63-.42-1.02-.55s-.81-.19-1.27-.19c-.85,0-1.58.21-2.19.62-.61.42-1.08,1.02-1.41,1.81-.33.79-.49,1.74-.49,2.85s.17,2.09.5,2.88.8,1.38,1.41,1.78c.61.4,1.34.6,2.18.6.46,0,.89-.06,1.27-.19.38-.13.72-.31,1.03-.55.3-.24.55-.53.74-.87.19-.34.33-.73.41-1.15h4.15c-.08.82-.32,1.61-.7,2.36-.38.76-.9,1.44-1.55,2.04s-1.43,1.08-2.34,1.44-1.93.53-3.07.53Z"/>
          <path class="g" d="M58.61,173.37c-1.56,0-2.96-.35-4.19-1.04-1.23-.69-2.21-1.7-2.92-3.02s-1.07-2.92-1.07-4.81.36-3.51,1.08-4.83c.72-1.32,1.7-2.33,2.93-3.02s2.62-1.04,4.17-1.04c1.03,0,1.98.14,2.86.43.88.29,1.66.71,2.33,1.26.67.55,1.22,1.22,1.64,2,.42.79.7,1.68.82,2.69h-4.15c-.07-.43-.2-.82-.39-1.16-.19-.34-.44-.63-.73-.87-.29-.24-.63-.42-1.02-.55s-.81-.19-1.27-.19c-.85,0-1.58.21-2.19.62-.61.42-1.08,1.02-1.41,1.81-.33.79-.49,1.74-.49,2.85s.17,2.09.5,2.88.8,1.38,1.41,1.78c.61.4,1.34.6,2.18.6.46,0,.89-.06,1.27-.19.38-.13.72-.31,1.03-.55.3-.24.55-.53.74-.87.19-.34.33-.73.41-1.15h4.15c-.08.82-.32,1.61-.7,2.36-.38.76-.9,1.44-1.55,2.04s-1.43,1.08-2.34,1.44-1.93.53-3.07.53Z"/>
          <path class="g" d="M68.38,173.13v-17.25h12.17v3.38h-8.07v3.52h7.43v3.3h-7.43v3.67h8.06v3.38h-12.16Z"/>
          <path class="g" d="M89.59,173.37c-1.46,0-2.72-.22-3.79-.66-1.07-.44-1.9-1.1-2.48-1.99-.59-.88-.89-1.98-.9-3.29h3.92c.04.56.19,1.02.46,1.4.27.38.64.67,1.11.86.47.2,1.02.3,1.64.3.57,0,1.06-.08,1.48-.24.41-.16.73-.38.96-.65.23-.28.34-.6.34-.96,0-.33-.1-.62-.31-.85-.2-.24-.52-.44-.93-.62-.42-.18-.95-.34-1.6-.49l-1.81-.41c-1.54-.34-2.73-.9-3.58-1.68-.85-.78-1.27-1.82-1.27-3.11,0-1.07.29-2.01.86-2.81.57-.8,1.37-1.42,2.38-1.87s2.17-.67,3.49-.67,2.51.23,3.49.68c.98.45,1.75,1.08,2.29,1.9.54.81.83,1.77.85,2.87h-3.91c-.05-.65-.31-1.15-.78-1.52-.47-.36-1.11-.54-1.94-.54-.53,0-.99.07-1.37.22-.38.15-.66.35-.86.61-.19.26-.29.55-.29.89s.1.63.31.87.5.44.89.61.85.31,1.4.42l1.49.34c.86.19,1.63.43,2.29.73.66.3,1.22.66,1.67,1.08s.79.9,1.02,1.45.35,1.17.35,1.86c0,1.1-.27,2.04-.82,2.84s-1.33,1.4-2.36,1.82c-1.03.42-2.26.63-3.69.63Z"/>
          <path class="g" d="M105.29,173.37c-1.46,0-2.72-.22-3.79-.66-1.07-.44-1.9-1.1-2.48-1.99-.59-.88-.89-1.98-.9-3.29h3.92c.04.56.19,1.02.46,1.4.27.38.64.67,1.11.86.47.2,1.02.3,1.64.3.57,0,1.06-.08,1.48-.24.41-.16.73-.38.96-.65.23-.28.34-.6.34-.96,0-.33-.1-.62-.31-.85-.2-.24-.52-.44-.93-.62-.42-.18-.95-.34-1.6-.49l-1.81-.41c-1.54-.34-2.73-.9-3.58-1.68-.85-.78-1.27-1.82-1.27-3.11,0-1.07.29-2.01.86-2.81.57-.8,1.37-1.42,2.38-1.87s2.17-.67,3.49-.67,2.51.23,3.49.68c.98.45,1.75,1.08,2.29,1.9.54.81.83,1.77.85,2.87h-3.91c-.05-.65-.31-1.15-.78-1.52-.47-.36-1.11-.54-1.94-.54-.53,0-.99.07-1.37.22-.38.15-.66.35-.86.61-.19.26-.29.55-.29.89s.1.63.31.87.5.44.89.61.85.31,1.4.42l1.49.34c.86.19,1.63.43,2.29.73.66.3,1.22.66,1.67,1.08s.79.9,1.02,1.45.35,1.17.35,1.86c0,1.1-.27,2.04-.82,2.84s-1.33,1.4-2.36,1.82c-1.03.42-2.26.63-3.69.63Z"/>
        </g>
        <g>
          <path class="g" d="M25.65,194.5v-17.25h4.1v13.87h7.31v3.38h-11.4Z"/>
          <path class="g" d="M39.06,194.5v-17.25h12.17v3.38h-8.07v3.52h7.43v3.3h-7.43v3.67h8.06v3.38h-12.16Z"/>
          <path class="g" d="M52.71,194.5l5.79-17.25h5.48l5.94,17.25h-4.61l-2.39-7.55c-.38-1.26-.75-2.58-1.11-3.97-.36-1.39-.73-2.84-1.09-4.36h.96c-.36,1.52-.71,2.98-1.05,4.36-.34,1.39-.69,2.71-1.06,3.96l-2.33,7.55h-4.54ZM56.65,190.91v-3.15h9.32v3.15h-9.32Z"/>
          <path class="g" d="M75.75,177.25v17.25h-4.1v-17.25h4.1ZM78.01,194.5h-4.6v-3.48h4.41c1,0,1.85-.17,2.53-.52.68-.35,1.2-.9,1.54-1.66.34-.76.52-1.74.52-2.96s-.18-2.21-.53-2.96c-.35-.76-.87-1.31-1.56-1.66-.69-.35-1.54-.52-2.56-.52h-4.42v-3.49h4.67c1.75,0,3.26.35,4.53,1.04,1.27.69,2.25,1.69,2.94,2.98.69,1.29,1.04,2.83,1.04,4.61s-.34,3.32-1.03,4.61c-.69,1.29-1.67,2.28-2.94,2.98s-2.79,1.04-4.54,1.04Z"/>
        </g>
        <g>
          <path class="j" d="M11.55,151.75v-17.25h7.06c1.3,0,2.43.25,3.38.74.95.49,1.67,1.19,2.19,2.08.51.89.77,1.93.77,3.12s-.26,2.21-.78,3.1c-.52.88-1.26,1.57-2.22,2.06-.96.49-2.11.73-3.43.73h-4.45v-3.28h3.81c.62,0,1.15-.11,1.58-.33.42-.22.75-.52.97-.91.22-.39.33-.84.33-1.36s-.11-.99-.33-1.38c-.22-.39-.54-.69-.97-.9-.42-.21-.95-.32-1.58-.32h-2.22v13.91h-4.1Z"/>
          <path class="j" d="M26.95,151.75v-17.25h12.17v3.38h-8.07v3.52h7.43v3.3h-7.43v3.67h8.06v3.38h-12.16Z"/>
          <path class="j" d="M49.26,152c-1.55,0-2.95-.35-4.19-1.04-1.24-.69-2.22-1.7-2.95-3.02-.72-1.32-1.08-2.92-1.08-4.81s.36-3.5,1.08-4.82c.72-1.32,1.7-2.33,2.95-3.02,1.24-.69,2.64-1.04,4.19-1.04s2.93.35,4.17,1.04c1.24.69,2.22,1.7,2.95,3.02.73,1.32,1.09,2.93,1.09,4.82s-.36,3.49-1.09,4.81-1.71,2.33-2.95,3.02c-1.24.69-2.63,1.04-4.17,1.04ZM49.26,148.4c.83,0,1.55-.2,2.15-.61.6-.41,1.07-1,1.39-1.78.32-.78.49-1.74.49-2.87s-.16-2.1-.49-2.88c-.32-.79-.79-1.38-1.39-1.79-.6-.41-1.32-.61-2.15-.61s-1.55.2-2.15.61c-.6.41-1.07,1-1.4,1.79-.33.79-.49,1.75-.49,2.88s.16,2.08.49,2.87c.33.78.79,1.38,1.4,1.78.6.41,1.32.61,2.15.61Z"/>
          <path class="j" d="M59.64,151.75v-17.25h7.06c1.3,0,2.43.25,3.38.74.95.49,1.67,1.19,2.19,2.08.51.89.77,1.93.77,3.12s-.26,2.21-.78,3.1c-.52.88-1.26,1.57-2.22,2.06-.96.49-2.11.73-3.43.73h-4.45v-3.28h3.81c.62,0,1.15-.11,1.58-.33.42-.22.75-.52.97-.91.22-.39.33-.84.33-1.36s-.11-.99-.33-1.38c-.22-.39-.54-.69-.97-.9-.42-.21-.95-.32-1.58-.32h-2.22v13.91h-4.1Z"/>
          <path class="j" d="M75.04,151.75v-17.25h4.1v13.87h7.31v3.38h-11.4Z"/>
          <path class="j" d="M88.45,151.75v-17.25h12.17v3.38h-8.07v3.52h7.43v3.3h-7.43v3.67h8.06v3.38h-12.16Z"/>
        </g>
      </g>
    </g>
  </g>
</svg>